<svg height="188.84616" width="191.06885" xmlns="http://www.w3.org/2000/svg"><g stroke="#000"><path d="m124.36749 123.87371h-94.35603c-.846002 0-1.52708-.6811-1.52708-1.5271v-57.327207c0-.846.681078-1.527 1.52708-1.527l11.97809-.044m10.694991-.221 99.908349.2652c.846 0 1.52708.681 1.52708 1.527v57.327207c0 .846-.68108 1.5271-1.52708 1.5271h-17.83977" fill="none" stroke-linecap="round" stroke-width="3"/><path d="m124.58846 123.39141v15.7331l-5.83363 6.8943" fill="none"/><path d="m124.58846 123.39141v15.7331l-5.83363 6.8943" fill="none"/><g fill="none" stroke-linecap="round" stroke-linejoin="round" stroke-width="3" transform="translate(-6.049517 -2.185597)"><path d="m130.54959 126.46089.0884 14.84925-5.83363 6.89429"/><path d="m140.80435 126.54928v14.76086l5.83363 6.89429"/></g><g fill="none" stroke-linecap="round" stroke-linejoin="round" stroke-width="3" transform="matrix(1 0 0 -1 -88.04951 191.30811)"><path d="m130.4612 127.8751.17679 13.43504-5.83363 6.89429"/><path d="m140.71596 128.40544.0884 12.9047 5.83363 6.89429"/></g><g transform="translate(-6.049517 -2.185597)"><path d="m49.143921 43.906178 4.86136 5.038136 4.684582-5.038136z"/><path d="m53.916892 43.906178v-7.336233"/></g><g transform="translate(75.950483 103.8144)"><path d="m49.143921 43.906178 4.86136 5.038136 4.684582-5.038136z"/><path d="m53.916892 43.906178v-7.336233"/></g></g><text font-family="Bitstream Vera Sans" font-size="40" x="16.224348" y="29.169661"><tspan font-size="16" x="16.224348" y="29.169661">INPUT x</tspan></text><text font-family="Bitstream Vera Sans" font-size="40" x="44.15506" y="99.526596"><tspan font-size="16" x="44.15506" y="99.526596">FUNCTION f:</tspan></text><text font-family="Bitstream Vera Sans" font-size="40" x="80.57106" y="167.76244"><tspan font-size="16" x="80.57106" y="167.76244">OUTPUT f(x)</tspan></text></svg>