<svg height="200" width="200" xmlns="http://www.w3.org/2000/svg"><g stroke="#000"><path d="m427.5862 222.81168a225.99469 229.17772 0 1 1 -451.989383 0 225.99469 229.17772 0 1 1 451.989383 0z" fill="#fff" stroke-width="5.997823" transform="matrix(-.4304874087 0 0 -.42517292458 186.61798646248 194.65559035088)"/><g fill="#f00" stroke-width="2.566"><path d="m48.953389 129.32227c-13.174786-7.67129-22.789443-21.12356-24.965189-37.393793-3.740923-27.96715 15.915891-53.66821 43.903329-57.406393 11.699234-1.562482 23.005541.962266 32.473821 6.471142"/><path d="m100.36609 40.994813c5.58653-3.20074 11.87582-5.392615 18.65321-6.29827 27.98716-3.738131 53.7073 15.904387 57.4474 43.869951 2.8051 20.973932-7.5496 40.676546-24.7096 50.792436-.17898.10575-.35903.2102-.53941.31363"/><path d="m151.21728 129.66983c-.05353 25.16169-18.70718 47.03967-44.35959 50.46552-27.986317 3.73819-53.706046-15.90429-57.446917-43.87068-.312693-2.33271-.461964-4.65039-.457384-6.94022"/><path d="m100.6281 129.18473c-5.718988 3.37236-12.196461 5.67941-19.193268 6.61409-11.70384 1.56357-23.01158-.96308-32.481443-6.47655v.00229c.039838-18.51337 10.149358-35.248669 25.704434-44.165076"/><path d="m125.79517 85.335612c13.17279 7.669989 22.78949 21.123798 24.96633 37.393708.31134 2.33298.45964 4.65065.45578 6.94051l.00041.00262c-5.58648 3.20192-11.87579 5.39522-18.65323 6.30043-11.70303 1.56285-23.00886-.96189-32.47882-6.47351"/><path d="m74.660862 85.160971c.03749-18.514921 10.14635-35.249814 25.705228-44.166158l-.00074-.001587c13.17668 7.670145 22.79632 21.125451 24.97322 37.398752.31219 2.334172.46035 4.651494.4566 6.94197"/><path d="m74.657823 85.159484c5.588803-3.201519 11.877018-5.395656 18.654662-6.30125 11.703875-1.561759 23.012765.962229 32.482685 6.477378v-.001664c-.03951 18.297392-9.91536 34.859832-25.16707 43.850782l-.54236.31464c-13.175524-7.67076-22.793994-21.12456-24.970615-37.396304-.310999-2.334276-.460455-4.651588-.454263-6.942095z"/></g></g></svg>